# xmcd
#
# Track frame offsets:
#	150
#	14994
#	25271
#	36684
#	45386
#	55066
#	64730
#	75097
#	88199
#	98616
#	108435
#	121888
#	132218
#
# Disc length: 1944 seconds
#
# Revision: 1
# Processed by: cddbd v1.5.2PL0 Copyright (c) Steve Scherf et al.
# Submitted via: audiograbber 1.83.01
#
DISCID=a507960d
DTITLE=Various Artist - A Classic Christmas [CD2]
DYEAR=2011
DGENRE=Christmas
TTITLE0=Tony Bennet - My Favorite Things
TTITLE1=Ella Fitzgerald - Winter Wonderland
TTITLE2=Andy Williams - It's The Most Wonderful Time Of The Year
TTITLE3=Peggy Lee - Happy Holiday
TTITLE4=Brenda Lee - Jingle Bell Rock
TTITLE5=Elvis Presley - Blue Christmas
TTITLE6=The Ronettes - Frosty The Snowman
TTITLE7=Darlene Love - White Christmas
TTITLE8=Dean Martin - Jingle Bells
TTITLE9=Burl Ives - Rudolph The Red-Nosed Reindeer
TTITLE10=Johnny Mathis - Sleigh Ride
TTITLE11=Peggy Lee - Santa Claus Is Comin' To Town
TTITLE12=Jose Feliciano - Feliz Navidad
EXTD=
EXTT0=
EXTT1=
EXTT2=
EXTT3=
EXTT4=
EXTT5=
EXTT6=
EXTT7=
EXTT8=
EXTT9=
EXTT10=
EXTT11=
EXTT12=
PLAYORDER=
